<svg xmlns="http://www.w3.org/2000/svg" viewBox="-4 -4 40 40" width="24" height="24" fill="currentColor">
  <title>Logo</title>
  <path d="M 16.52,26.6 C 16,26.359999 15.868136,25.903274 16,25.199999 L 17.2,18.8 3.1999999,20.4 C 2.2799999,20.52 1.88,20.44 1.6,20 1.36,19.56 1.4,19 2,18.4 L 14,5.9999999 c 0.3,-0.3 0.8,-0.84 1.48,-0.6 0.68,0.24 0.59371,1.0068509 0.52,1.3999999 L 14.8,13.2 28.799999,11.6 c 0.92,-0.12 1.32,0 1.6,0.4 0.24,0.48 0.24,0.92 -0.4,1.6 L 18,25.999999 c -0.48,0.52 -0.92,0.8 -1.48,0.600001 z"/>
</svg>
